<svg id="svg" xmlns="http://www.w3.org/2000/svg" xmlns:xlink="http://www.w3.org/1999/xlink" width="400" height="400" viewBox="0, 0, 400,400"><g id="svgg"><path id="path0" d="M377.639 123.465 L 361.111 138.532 361.111 204.511 C 361.111 240.799,361.314 270.616,361.563 270.769 C 361.811 270.922,363.873 269.598,366.146 267.826 C 368.418 266.055,371.859 263.381,373.792 261.886 L 377.306 259.167 377.259 202.185 L 377.212 145.203 385.828 136.725 L 394.444 128.247 394.444 118.290 C 394.444 112.814,394.382 108.348,394.306 108.365 C 394.229 108.383,386.729 115.178,377.639 123.465 M11.435 109.370 C 11.265 109.645,11.185 143.454,11.258 184.503 L 11.389 259.136 19.167 265.056 C 23.444 268.312,27.132 270.866,27.361 270.733 C 27.590 270.599,27.778 257.652,27.778 241.961 L 27.778 213.432 36.944 204.593 L 46.111 195.754 46.111 167.112 C 46.111 139.706,46.066 138.436,45.065 137.707 C 44.490 137.287,37.577 131.319,29.702 124.444 C 11.284 108.364,11.796 108.786,11.435 109.370 M275.278 118.814 L 267.500 124.780 267.385 175.862 L 267.269 226.944 275.267 234.066 C 279.665 237.983,283.410 241.171,283.588 241.150 C 283.767 241.128,283.905 219.009,283.895 191.996 L 283.877 142.881 291.969 134.912 C 296.420 130.530,300.297 126.861,300.586 126.759 C 302.667 126.025,299.898 125.563,292.639 125.431 L 284.167 125.278 284.010 119.028 C 283.923 115.590,283.673 112.794,283.454 112.813 C 283.235 112.832,279.556 115.533,275.278 118.814 M157.632 134.867 L 148.889 143.624 148.889 166.220 L 148.889 188.816 157.773 196.957 L 166.657 205.099 174.023 198.860 C 178.074 195.429,182.076 191.903,182.917 191.024 L 184.444 189.427 184.444 166.550 L 184.444 143.673 175.694 134.893 C 170.882 130.064,166.817 126.113,166.660 126.112 C 166.504 126.112,162.441 130.051,157.632 134.867 M48.715 127.025 C 48.025 127.716,48.260 210.556,48.952 210.556 C 49.601 210.556,52.460 208.173,62.198 199.515 L 68.056 194.308 68.333 199.238 L 68.611 204.167 76.111 204.167 L 83.611 204.167 83.611 169.444 L 83.611 134.722 75.839 134.904 C 70.694 135.025,67.924 135.306,67.641 135.738 C 67.407 136.096,67.238 146.088,67.266 157.942 C 67.311 176.867,67.208 179.661,66.424 180.858 C 64.572 183.684,64.444 182.455,64.444 161.757 L 64.444 141.291 57.199 134.118 C 49.678 126.671,49.347 126.394,48.715 127.025 M198.868 132.301 C 195.366 135.400,191.188 139.170,189.583 140.679 L 186.667 143.422 186.667 165.646 C 186.667 177.870,186.866 187.787,187.110 187.685 C 187.354 187.583,191.242 184.500,195.749 180.833 C 200.256 177.167,204.182 174.083,204.472 173.981 C 204.789 173.870,205.000 176.913,205.000 181.607 L 205.000 189.417 195.972 189.570 L 186.944 189.722 186.789 196.806 L 186.633 203.889 204.140 203.889 L 221.646 203.889 221.795 176.336 C 221.877 161.181,221.795 148.690,221.612 148.577 C 221.256 148.357,221.132 148.455,210.897 157.024 C 207.195 160.123,203.966 162.538,203.721 162.390 C 203.159 162.050,203.355 148.889,203.923 148.889 C 204.153 148.889,205.465 150.139,206.839 151.667 C 208.213 153.194,209.494 154.444,209.686 154.444 C 210.146 154.444,221.667 144.453,221.667 144.054 C 221.667 143.403,206.219 126.667,205.619 126.667 C 205.408 126.667,202.370 129.202,198.868 132.301 M350.417 134.166 L 342.778 141.631 342.778 161.927 C 342.778 174.730,342.578 182.222,342.236 182.222 C 340.262 182.222,340.000 179.363,339.991 157.666 C 339.987 145.964,339.799 136.100,339.574 135.746 C 339.320 135.346,336.285 134.951,331.527 134.699 L 323.889 134.295 323.889 169.369 L 323.889 204.444 331.389 204.444 L 338.889 204.444 338.889 199.444 C 338.889 196.694,339.076 194.456,339.306 194.470 C 339.535 194.483,343.963 198.224,349.147 202.781 C 354.331 207.339,358.706 210.852,358.869 210.587 C 359.330 209.843,358.929 126.664,358.465 126.684 C 358.240 126.694,354.618 130.061,350.417 134.166 M96.510 130.417 C 94.606 132.174,91.362 135.079,89.302 136.873 L 85.556 140.136 85.556 172.290 L 85.556 204.444 93.333 204.444 L 101.111 204.444 101.111 174.903 L 101.111 145.362 102.494 146.661 L 103.876 147.959 107.355 144.718 C 109.268 142.935,111.307 141.038,111.886 140.503 C 112.907 139.560,112.769 139.349,107.188 133.377 C 100.471 126.188,100.949 126.321,96.510 130.417 M120.694 135.389 L 111.667 143.553 111.667 192.888 C 111.667 225.407,111.856 242.222,112.222 242.222 C 112.528 242.222,112.780 242.035,112.784 241.806 C 112.790 241.349,115.024 238.889,122.050 231.599 L 126.667 226.810 126.667 215.627 L 126.667 204.444 136.667 204.444 L 146.667 204.444 146.667 173.793 L 146.667 143.142 138.775 135.182 C 134.434 130.804,130.622 127.223,130.303 127.223 C 129.983 127.224,125.660 130.899,120.694 135.389 M232.971 136.250 L 224.010 145.278 224.124 174.444 L 224.237 203.611 240.174 203.759 L 256.111 203.906 256.111 196.953 L 256.111 190.000 248.611 190.000 L 241.111 190.000 241.114 187.917 C 241.118 185.655,241.122 185.649,251.200 175.173 L 256.111 170.068 256.109 157.395 L 256.106 144.722 249.581 136.000 C 245.992 131.202,242.803 127.265,242.494 127.250 C 242.185 127.235,237.899 131.285,232.971 136.250 M294.578 135.737 L 286.100 144.167 286.106 167.022 C 286.111 187.998,286.191 189.967,287.083 190.969 C 287.618 191.570,291.614 195.119,295.963 198.856 L 303.871 205.650 305.150 204.631 C 305.853 204.070,309.857 200.631,314.048 196.990 L 321.667 190.368 321.667 167.261 L 321.667 144.153 313.188 135.688 C 308.525 131.032,304.337 127.241,303.882 127.264 C 303.428 127.288,299.241 131.100,294.578 135.737 M30.015 146.140 C 31.012 148.003,30.713 187.862,29.691 189.321 C 27.892 191.889,27.778 190.587,27.778 167.517 C 27.778 143.554,27.917 142.220,30.015 146.140 M242.654 155.344 C 242.794 162.479,242.709 163.292,241.700 164.504 L 240.593 165.833 240.574 156.487 C 240.557 147.880,240.632 147.155,241.528 147.327 C 242.390 147.493,242.517 148.400,242.654 155.344 M130.424 169.353 L 130.569 189.524 129.313 189.345 L 128.056 189.167 127.909 169.725 C 127.754 149.132,127.783 148.702,129.304 148.994 C 130.207 149.168,130.288 150.637,130.424 169.353 M168.203 165.620 C 168.329 179.760,168.231 182.171,167.508 182.771 C 165.235 184.657,165.000 183.072,165.000 165.858 C 165.000 149.065,165.038 148.735,166.922 149.004 C 168.030 149.163,168.059 149.535,168.203 165.620 M305.556 166.389 C 305.556 182.260,305.242 184.791,303.418 183.663 C 302.459 183.071,302.512 149.637,303.472 149.277 C 305.317 148.586,305.556 150.548,305.556 166.389 " stroke="none" fill="#000000" fill-rule="evenodd"></path></g></svg>