<?xml version="1.0" encoding="utf-8"?>
<!-- Generator: Adobe Illustrator 23.0.1, SVG Export Plug-In . SVG Version: 6.00 Build 0)  -->
<svg version="1.1" id="svg" xmlns="http://www.w3.org/2000/svg" xmlns:xlink="http://www.w3.org/1999/xlink" x="0px" y="0px"
	 viewBox="0 0 400 166.8" style="enable-background:new 0 0 400 166.8;" xml:space="preserve">
<style type="text/css">
	.st0{fill-rule:evenodd;clip-rule:evenodd;}
</style>
<g id="svgg">
	<path id="path0" class="st0" d="M377.6,19.5l-16.5,15.1v66c0,36.3,0.2,66.1,0.5,66.3c0.2,0.2,2.3-1.2,4.6-2.9
		c2.3-1.8,5.7-4.4,7.6-5.9l3.5-2.7l0-57l0-57l8.6-8.5l8.6-8.5v-10c0-5.5-0.1-9.9-0.1-9.9C394.2,4.4,386.7,11.2,377.6,19.5 M11.4,5.4
		c-0.2,0.3-0.3,34.1-0.2,75.1l0.1,74.6l7.8,5.9c4.3,3.3,8,5.8,8.2,5.7c0.2-0.1,0.4-13.1,0.4-28.8v-28.5l9.2-8.8l9.2-8.8V63.1
		c0-27.4,0-28.7-1-29.4c-0.6-0.4-7.5-6.4-15.4-13.3C11.3,4.4,11.8,4.8,11.4,5.4 M275.3,14.8l-7.8,6l-0.1,51.1l-0.1,51.1l8,7.1
		c4.4,3.9,8.1,7.1,8.3,7.1c0.2,0,0.3-22.1,0.3-49.2l0-49.1l8.1-8c4.5-4.4,8.3-8.1,8.6-8.2c2.1-0.7-0.7-1.2-7.9-1.3l-8.5-0.2L284,15
		c-0.1-3.4-0.3-6.2-0.6-6.2C283.2,8.8,279.6,11.5,275.3,14.8 M157.6,30.9l-8.7,8.8v22.6v22.6l8.9,8.1l8.9,8.1l7.4-6.2
		c4.1-3.4,8.1-7,8.9-7.8l1.5-1.6V62.6V39.7l-8.8-8.8c-4.8-4.8-8.9-8.8-9-8.8C166.5,22.1,162.4,26.1,157.6,30.9 M48.7,23
		c-0.7,0.7-0.5,83.5,0.2,83.5c0.6,0,3.5-2.4,13.2-11l5.9-5.2l0.3,4.9l0.3,4.9h7.5h7.5V65.4V30.7l-7.8,0.2c-5.1,0.1-7.9,0.4-8.2,0.8
		c-0.2,0.4-0.4,10.3-0.4,22.2c0,18.9-0.1,21.7-0.8,22.9c-1.9,2.8-2,1.6-2-19.1V37.3l-7.2-7.2C49.7,22.7,49.3,22.4,48.7,23
		 M198.9,28.3c-3.5,3.1-7.7,6.9-9.3,8.4l-2.9,2.7v22.2c0,12.2,0.2,22.1,0.4,22s4.1-3.2,8.6-6.9c4.5-3.7,8.4-6.8,8.7-6.9
		c0.3-0.1,0.5,2.9,0.5,7.6v7.8l-9,0.2l-9,0.2l-0.2,7.1l-0.2,7.1h17.5h17.5l0.1-27.6c0.1-15.2,0-27.6-0.2-27.8
		c-0.4-0.2-0.5-0.1-10.7,8.4c-3.7,3.1-6.9,5.5-7.2,5.4c-0.6-0.3-0.4-13.5,0.2-13.5c0.2,0,1.5,1.3,2.9,2.8c1.4,1.5,2.7,2.8,2.8,2.8
		c0.5,0,12-10,12-10.4c0-0.7-15.4-17.4-16-17.4C205.4,22.7,202.4,25.2,198.9,28.3 M350.4,30.2l-7.6,7.5v20.3
		c0,12.8-0.2,20.3-0.5,20.3c-2,0-2.2-2.9-2.2-24.6c0-11.7-0.2-21.6-0.4-21.9c-0.3-0.4-3.3-0.8-8-1l-7.6-0.4v35.1v35.1h7.5h7.5v-5
		c0-2.8,0.2-5,0.4-5c0.2,0,4.7,3.8,9.8,8.3c5.2,4.6,9.6,8.1,9.7,7.8c0.5-0.7,0.1-83.9-0.4-83.9C358.2,22.7,354.6,26.1,350.4,30.2
		 M96.5,26.4c-1.9,1.8-5.1,4.7-7.2,6.5l-3.7,3.3v32.2v32.2h7.8h7.8V70.9V41.4l1.4,1.3l1.4,1.3l3.5-3.2c1.9-1.8,4-3.7,4.5-4.2
		c1-0.9,0.9-1.2-4.7-7.1C100.5,22.2,100.9,22.3,96.5,26.4 M120.7,31.4l-9,8.2v49.3c0,32.5,0.2,49.3,0.6,49.3c0.3,0,0.6-0.2,0.6-0.4
		c0-0.5,2.2-2.9,9.3-10.2l4.6-4.8v-11.2v-11.2h10h10V69.8V39.1l-7.9-8c-4.3-4.4-8.2-8-8.5-8C130,23.2,125.7,26.9,120.7,31.4
		 M233,32.3l-9,9l0.1,29.2l0.1,29.2l15.9,0.1l15.9,0.1v-7v-7h-7.5h-7.5l0-2.1c0-2.3,0-2.3,10.1-12.7l4.9-5.1l0-12.7l0-12.7l-6.5-8.7
		c-3.6-4.8-6.8-8.7-7.1-8.8C242.2,23.2,237.9,27.3,233,32.3 M294.6,31.7l-8.5,8.4l0,22.9c0,21,0.1,22.9,1,23.9
		c0.5,0.6,4.5,4.2,8.9,7.9l7.9,6.8l1.3-1c0.7-0.6,4.7-4,8.9-7.6l7.6-6.6V63.3V40.2l-8.5-8.5c-4.7-4.7-8.9-8.4-9.3-8.4
		C303.4,23.3,299.2,27.1,294.6,31.7 M30,42.1c1,1.9,0.7,41.7-0.3,43.2c-1.8,2.6-1.9,1.3-1.9-21.8C27.8,39.6,27.9,38.2,30,42.1
		 M242.7,51.3c0.1,7.1,0.1,7.9-1,9.2l-1.1,1.3l0-9.3c0-8.6,0.1-9.3,1-9.2C242.4,43.5,242.5,44.4,242.7,51.3 M130.4,65.4l0.1,20.2
		l-1.3-0.2l-1.3-0.2l-0.1-19.4c-0.2-20.6-0.1-21,1.4-20.7C130.2,45.2,130.3,46.6,130.4,65.4 M168.2,61.6c0.1,14.1,0,16.6-0.7,17.2
		c-2.3,1.9-2.5,0.3-2.5-16.9c0-16.8,0-17.1,1.9-16.9C168,45.2,168.1,45.5,168.2,61.6 M305.6,62.4c0,15.9-0.3,18.4-2.1,17.3
		c-1-0.6-0.9-34,0.1-34.4C305.3,44.6,305.6,46.5,305.6,62.4"/>
</g>
</svg>
